<?xml version="1.0" encoding="iso-8859-1"?>
<!-- Generator: Adobe Illustrator 16.0.3, SVG Export Plug-In . SVG Version: 6.00 Build 0)  -->
<!DOCTYPE svg PUBLIC "-//W3C//DTD SVG 1.1//EN" "http://www.w3.org/Graphics/SVG/1.1/DTD/svg11.dtd">
<svg version="1.1" id="Layer_1" xmlns="http://www.w3.org/2000/svg" xmlns:xlink="http://www.w3.org/1999/xlink" x="0px" y="0px"
	 width="190px" height="73px" viewBox="0 0 190 73" style="enable-background:new 0 0 190 73;" xml:space="preserve">
<g>
	<path style="fill:#F26924;" d="M43.762,17.838L29.633,38.164h11.215l-0.975,6.48H15.941h-0.357L30,24H18.73l0.871-6.162h23.67
		H43.762z"/>
	<path style="fill:#F26924;" d="M70.76,30.24c0,2.123-0.387,4.111-1.16,5.963c-0.771,1.854-1.832,3.438-3.185,4.754
		c-1.351,1.314-2.949,2.34-4.792,3.066c-1.842,0.729-3.789,1.092-5.844,1.092c-2.424,0-4.679-0.529-6.768-1.592
		c-2.088-1.063-3.747-2.584-4.976-4.568c-1.229-1.984-1.843-4.256-1.843-6.818c0-1.949,0.395-3.822,1.184-5.621
		c0.791-1.801,1.892-3.389,3.305-4.768c1.413-1.377,3.067-2.453,4.963-3.225s3.924-1.158,6.084-1.158
		c2.262,0,4.385,0.479,6.371,1.436c1.982,0.957,3.589,2.4,4.817,4.33C70.145,25.063,70.76,27.432,70.76,30.24z M61.809,30.082
		c0-1.631-0.435-2.904-1.303-3.816c-0.869-0.914-1.979-1.371-3.332-1.371c-1.404,0-2.555,0.412-3.449,1.238s-1.547,1.822-1.96,2.988
		c-0.413,1.168-0.619,2.26-0.619,3.277c0,1.457,0.43,2.686,1.289,3.686c0.86,1,2.012,1.502,3.45,1.502
		c1.141,0,2.166-0.369,3.079-1.105c0.915-0.738,1.616-1.689,2.107-2.857S61.809,31.277,61.809,30.082z"/>
	<path style="fill:#F26924;" d="M101.853,30.24c0,2.123-0.386,4.111-1.158,5.963c-0.772,1.854-1.835,3.438-3.186,4.754
		c-1.353,1.314-2.95,2.34-4.793,3.066c-1.843,0.729-3.791,1.092-5.846,1.092c-2.421,0-4.677-0.529-6.766-1.592
		s-3.747-2.584-4.978-4.568c-1.229-1.984-1.842-4.256-1.842-6.818c0-1.949,0.395-3.822,1.184-5.621
		c0.791-1.801,1.894-3.389,3.306-4.768c1.412-1.377,3.067-2.453,4.962-3.225c1.896-0.771,3.923-1.158,6.083-1.158
		c2.265,0,4.388,0.479,6.371,1.436s3.589,2.4,4.819,4.33C101.237,25.063,101.853,27.432,101.853,30.24z M92.9,30.082
		c0-1.631-0.434-2.904-1.303-3.816c-0.869-0.914-1.979-1.371-3.331-1.371c-1.405,0-2.554,0.412-3.451,1.238
		c-0.893,0.826-1.548,1.822-1.959,2.988c-0.413,1.168-0.618,2.26-0.618,3.277c0,1.457,0.428,2.686,1.289,3.686
		c0.858,1,2.009,1.502,3.448,1.502c1.142,0,2.167-0.369,3.081-1.105c0.911-0.738,1.614-1.689,2.107-2.857
		C92.655,32.455,92.9,31.277,92.9,30.082z"/>
	<path style="fill:#F26924;" d="M154.646,29.607c0,1.264-0.123,2.572-0.37,3.924h-16.954c0,3.703,1.816,5.557,5.451,5.557
		c1.806,0,3.425-0.213,4.856-0.633c1.432-0.422,3.139-1.035,5.122-1.844l-1.345,6.584c-1.877,0.754-3.382,1.264-4.514,1.527
		c-1.134,0.262-2.561,0.393-4.279,0.393c-3.652,0-6.521-0.676-8.608-2.027c-2.088-1.35-3.512-2.965-4.268-4.844
		c-0.756-1.877-1.133-3.738-1.133-5.584c0-2.754,0.63-5.303,1.884-7.646c1.255-2.344,2.992-4.203,5.213-5.582
		c2.222-1.377,4.726-2.066,7.518-2.066c2.088,0,3.998,0.447,5.728,1.342c1.727,0.896,3.109,2.266,4.145,4.107
		C154.129,24.658,154.646,26.922,154.646,29.607z M146.17,28.793c0-0.123,0.002-0.24,0.013-0.355
		c0.009-0.115,0.012-0.285,0.012-0.516c0-3.018-1.042-4.529-3.132-4.529c-1.265,0-2.261,0.498-2.987,1.49
		c-0.731,0.992-1.41,2.295-2.043,3.91H146.17z"/>
</g>
<g>
	<polygon style="fill:#F26924;" points="113.846,32.629 111.89,21.217 102.804,21.217 108.559,44.592 	"/>
	<polygon style="fill:#F26924;" points="124.914,11.117 109.98,44.645 118.293,44.645 134.001,11.117 	"/>
</g>
<g>
	<g>
		<path style="fill:#58595B;" d="M79.361,60.312c-0.457,0-0.877-0.069-1.26-0.21c-0.383-0.14-0.714-0.338-0.994-0.595
			c-0.28-0.257-0.5-0.563-0.658-0.917c-0.159-0.354-0.238-0.746-0.238-1.176c0-0.551,0.096-1.073,0.287-1.568
			c0.191-0.494,0.462-0.931,0.812-1.309s0.77-0.677,1.26-0.896c0.49-0.219,1.034-0.329,1.631-0.329c0.457,0,0.877,0.07,1.26,0.21
			c0.383,0.141,0.714,0.336,0.994,0.589c0.28,0.252,0.497,0.553,0.651,0.902c0.154,0.351,0.231,0.74,0.231,1.169
			c0,0.561-0.096,1.09-0.287,1.589c-0.191,0.5-0.462,0.938-0.812,1.316c-0.35,0.378-0.768,0.677-1.253,0.896
			C80.5,60.202,79.958,60.312,79.361,60.312z M82.021,56.308c0-0.271-0.044-0.522-0.133-0.756c-0.089-0.233-0.215-0.437-0.378-0.608
			c-0.164-0.173-0.364-0.309-0.602-0.406c-0.238-0.099-0.502-0.147-0.791-0.147c-0.383,0-0.733,0.08-1.05,0.238
			c-0.317,0.159-0.59,0.371-0.819,0.637c-0.229,0.267-0.406,0.574-0.532,0.924c-0.126,0.351-0.189,0.722-0.189,1.113
			c0,0.561,0.168,1.02,0.504,1.379c0.336,0.359,0.802,0.539,1.4,0.539c0.382,0,0.732-0.077,1.05-0.23
			c0.317-0.154,0.59-0.364,0.819-0.631c0.229-0.266,0.406-0.576,0.532-0.931S82.021,56.7,82.021,56.308z"/>
		<path style="fill:#58595B;" d="M90.058,55.188c-0.112-0.224-0.301-0.413-0.567-0.566c-0.266-0.154-0.562-0.231-0.889-0.231
			c-0.383,0-0.735,0.077-1.057,0.231c-0.322,0.153-0.6,0.364-0.833,0.63s-0.416,0.574-0.546,0.924
			c-0.131,0.35-0.196,0.721-0.196,1.113c0,0.271,0.04,0.522,0.119,0.756c0.079,0.233,0.198,0.437,0.357,0.609
			s0.357,0.31,0.595,0.412c0.238,0.104,0.516,0.154,0.833,0.154c0.42,0,0.774-0.074,1.064-0.224
			c0.289-0.149,0.541-0.341,0.756-0.574l0.784,0.728c-0.355,0.355-0.749,0.638-1.183,0.848s-0.936,0.314-1.505,0.314
			c-0.476,0-0.908-0.069-1.295-0.21c-0.388-0.14-0.717-0.336-0.987-0.588s-0.481-0.553-0.63-0.902
			c-0.149-0.351-0.224-0.74-0.224-1.17c0-0.55,0.096-1.075,0.287-1.574s0.462-0.938,0.812-1.316s0.772-0.679,1.267-0.903
			c0.495-0.224,1.045-0.336,1.652-0.336c0.243,0,0.483,0.023,0.721,0.07c0.238,0.047,0.462,0.114,0.672,0.203
			s0.401,0.203,0.574,0.343c0.173,0.141,0.315,0.309,0.427,0.504L90.058,55.188z"/>
		<path style="fill:#58595B;" d="M92.843,57.204c-0.009,0.047-0.014,0.086-0.014,0.119c0,0.032,0,0.067,0,0.104
			c0,0.262,0.049,0.502,0.147,0.721c0.098,0.22,0.233,0.411,0.406,0.574c0.172,0.164,0.378,0.29,0.616,0.378
			c0.238,0.089,0.492,0.133,0.763,0.133c0.476,0,0.884-0.095,1.225-0.286c0.34-0.191,0.627-0.432,0.861-0.722l0.77,0.729
			c-0.392,0.448-0.84,0.786-1.344,1.015c-0.504,0.229-1.05,0.343-1.638,0.343c-0.439,0-0.847-0.065-1.225-0.195
			c-0.378-0.131-0.705-0.322-0.98-0.574s-0.49-0.561-0.644-0.924c-0.154-0.364-0.231-0.779-0.231-1.246
			c0-0.551,0.098-1.073,0.294-1.568c0.196-0.494,0.467-0.926,0.812-1.295c0.345-0.368,0.756-0.66,1.232-0.875
			c0.476-0.215,0.989-0.322,1.54-0.322c0.849,0,1.521,0.231,2.016,0.693s0.742,1.108,0.742,1.939c0,0.13-0.012,0.319-0.035,0.566
			c-0.023,0.247-0.059,0.479-0.105,0.693H92.843z M96.945,56.252c0.009-0.065,0.016-0.136,0.021-0.21
			c0.004-0.074,0.007-0.145,0.007-0.21c0-0.43-0.14-0.786-0.42-1.071c-0.28-0.284-0.686-0.427-1.218-0.427
			c-0.317,0-0.607,0.056-0.868,0.168s-0.493,0.257-0.693,0.434c-0.201,0.178-0.369,0.383-0.504,0.616s-0.231,0.467-0.287,0.7H96.945
			z"/>
		<path style="fill:#58595B;" d="M101.789,53.494c-0.019,0.131-0.04,0.306-0.063,0.524c-0.023,0.22-0.049,0.404-0.077,0.554h0.028
			c0.243-0.383,0.553-0.688,0.931-0.917s0.805-0.344,1.281-0.344c0.728,0,1.281,0.194,1.659,0.581
			c0.378,0.388,0.567,0.875,0.567,1.463c0,0.233-0.019,0.458-0.056,0.673l-0.728,4.102h-1.302l0.644-3.668
			c0.056-0.252,0.084-0.499,0.084-0.742c0-0.383-0.093-0.695-0.28-0.938c-0.187-0.243-0.523-0.364-1.008-0.364
			c-0.522,0-0.975,0.198-1.358,0.595c-0.383,0.397-0.635,0.927-0.756,1.589l-0.616,3.528h-1.302l0.91-5.194
			c0.038-0.177,0.077-0.405,0.119-0.686s0.072-0.532,0.091-0.756H101.789z"/>
		<path style="fill:#58595B;" d="M110.077,58.716h0.028l2.94-5.222h1.4l-4.858,8.204c-0.168,0.279-0.332,0.529-0.49,0.749
			c-0.159,0.219-0.332,0.405-0.518,0.56s-0.392,0.273-0.616,0.357c-0.224,0.084-0.476,0.126-0.756,0.126
			c-0.289,0-0.564-0.033-0.826-0.099l0.182-1.147c0.206,0.074,0.411,0.111,0.616,0.111c0.299,0,0.546-0.096,0.742-0.286
			c0.196-0.191,0.401-0.465,0.616-0.819l0.658-1.12l-1.456-6.636h1.386L110.077,58.716z"/>
		<path style="fill:#58595B;" d="M119.526,53.494l0.462,5.067h0.028l2.59-5.067h1.302l0.658,5.067h0.042l2.52-5.067h1.372L125,60.13
			h-1.344l-0.672-5.026h-0.028l-2.618,5.026h-1.344l-0.826-6.636H119.526z"/>
		<path style="fill:#58595B;" d="M133.415,55.986c0.019-0.131,0.032-0.233,0.042-0.309c0.009-0.074,0.014-0.145,0.014-0.21
			c0-0.392-0.121-0.674-0.364-0.847s-0.588-0.259-1.036-0.259c-0.355,0-0.709,0.069-1.064,0.21c-0.355,0.14-0.663,0.313-0.924,0.518
			l-0.532-0.868c0.354-0.28,0.77-0.501,1.246-0.665c0.476-0.163,0.961-0.245,1.456-0.245c0.317,0,0.623,0.035,0.917,0.105
			s0.555,0.182,0.784,0.336c0.229,0.154,0.413,0.357,0.553,0.609s0.21,0.555,0.21,0.909c0,0.084-0.005,0.194-0.014,0.329
			c-0.009,0.136-0.023,0.25-0.042,0.344l-0.49,2.688c-0.047,0.262-0.084,0.53-0.112,0.805c-0.028,0.275-0.042,0.507-0.042,0.693
			h-1.19c0-0.14,0.007-0.289,0.021-0.448c0.014-0.158,0.035-0.317,0.063-0.476h-0.028c-0.317,0.373-0.663,0.644-1.036,0.812
			c-0.373,0.168-0.812,0.252-1.316,0.252c-0.224,0-0.458-0.027-0.7-0.084c-0.243-0.056-0.464-0.151-0.665-0.287
			c-0.201-0.135-0.367-0.314-0.497-0.538c-0.131-0.225-0.196-0.505-0.196-0.841c0-0.541,0.149-0.978,0.448-1.309
			c0.298-0.331,0.684-0.588,1.155-0.771c0.471-0.182,1.001-0.303,1.589-0.363C132.252,56.017,132.835,55.986,133.415,55.986z
			 M133.064,56.938c-0.364,0-0.742,0.017-1.134,0.05c-0.392,0.032-0.749,0.098-1.071,0.195c-0.322,0.099-0.586,0.24-0.791,0.428
			c-0.206,0.187-0.308,0.429-0.308,0.728c0,0.187,0.035,0.339,0.105,0.455c0.07,0.117,0.163,0.212,0.28,0.287
			c0.117,0.074,0.247,0.126,0.392,0.153c0.145,0.028,0.292,0.043,0.441,0.043c0.289,0,0.56-0.05,0.812-0.147
			s0.471-0.231,0.658-0.399s0.343-0.363,0.469-0.588c0.126-0.224,0.212-0.462,0.259-0.714l0.098-0.49H133.064z"/>
		<path style="fill:#58595B;" d="M138.118,56.392h0.042l3.191-2.897h1.723l-3.584,3.08l2.73,3.556h-1.638l-2.478-3.444h-0.042
			l-0.602,3.444h-1.302l1.862-10.584h1.302L138.118,56.392z"/>
		<path style="fill:#58595B;" d="M147.903,55.986c0.019-0.131,0.033-0.233,0.042-0.309c0.01-0.074,0.015-0.145,0.015-0.21
			c0-0.392-0.122-0.674-0.364-0.847c-0.243-0.173-0.588-0.259-1.036-0.259c-0.354,0-0.709,0.069-1.063,0.21
			c-0.355,0.14-0.663,0.313-0.925,0.518l-0.531-0.868c0.354-0.28,0.77-0.501,1.245-0.665c0.477-0.163,0.962-0.245,1.456-0.245
			c0.317,0,0.623,0.035,0.917,0.105s0.556,0.182,0.784,0.336s0.413,0.357,0.554,0.609c0.14,0.252,0.21,0.555,0.21,0.909
			c0,0.084-0.005,0.194-0.015,0.329c-0.009,0.136-0.023,0.25-0.042,0.344l-0.49,2.688c-0.046,0.262-0.084,0.53-0.111,0.805
			c-0.028,0.275-0.042,0.507-0.042,0.693h-1.19c0-0.14,0.007-0.289,0.021-0.448c0.014-0.158,0.035-0.317,0.063-0.476h-0.027
			c-0.317,0.373-0.663,0.644-1.036,0.812c-0.374,0.168-0.813,0.252-1.316,0.252c-0.224,0-0.457-0.027-0.7-0.084
			c-0.242-0.056-0.464-0.151-0.665-0.287c-0.2-0.135-0.366-0.314-0.497-0.538c-0.131-0.225-0.195-0.505-0.195-0.841
			c0-0.541,0.148-0.978,0.447-1.309s0.684-0.588,1.155-0.771c0.472-0.182,1.001-0.303,1.589-0.363S147.325,55.986,147.903,55.986z
			 M147.554,56.938c-0.364,0-0.742,0.017-1.134,0.05c-0.393,0.032-0.749,0.098-1.071,0.195c-0.322,0.099-0.586,0.24-0.791,0.428
			c-0.205,0.187-0.308,0.429-0.308,0.728c0,0.187,0.034,0.339,0.104,0.455c0.07,0.117,0.163,0.212,0.28,0.287
			c0.116,0.074,0.247,0.126,0.392,0.153c0.145,0.028,0.292,0.043,0.441,0.043c0.289,0,0.56-0.05,0.812-0.147
			s0.472-0.231,0.658-0.399s0.343-0.363,0.469-0.588c0.126-0.224,0.213-0.462,0.26-0.714l0.098-0.49H147.554z"/>
		<path style="fill:#58595B;" d="M156.107,55.188c-0.112-0.224-0.301-0.413-0.567-0.566c-0.266-0.154-0.563-0.231-0.889-0.231
			c-0.383,0-0.735,0.077-1.058,0.231c-0.321,0.153-0.6,0.364-0.833,0.63s-0.415,0.574-0.546,0.924s-0.195,0.721-0.195,1.113
			c0,0.271,0.039,0.522,0.119,0.756c0.079,0.233,0.197,0.437,0.356,0.609c0.158,0.173,0.357,0.31,0.595,0.412
			c0.238,0.104,0.516,0.154,0.833,0.154c0.42,0,0.775-0.074,1.064-0.224s0.541-0.341,0.756-0.574l0.784,0.728
			c-0.354,0.355-0.749,0.638-1.184,0.848c-0.434,0.21-0.936,0.314-1.505,0.314c-0.476,0-0.907-0.069-1.295-0.21
			c-0.387-0.14-0.716-0.336-0.986-0.588c-0.271-0.252-0.481-0.553-0.631-0.902c-0.149-0.351-0.224-0.74-0.224-1.17
			c0-0.55,0.096-1.075,0.287-1.574s0.462-0.938,0.812-1.316c0.351-0.378,0.772-0.679,1.268-0.903
			c0.494-0.224,1.045-0.336,1.652-0.336c0.242,0,0.482,0.023,0.721,0.07s0.462,0.114,0.672,0.203s0.401,0.203,0.574,0.343
			c0.172,0.141,0.314,0.309,0.427,0.504L156.107,55.188z"/>
		<path style="fill:#58595B;" d="M155.799,62.3c0.168,0.047,0.341,0.07,0.518,0.07c0.196,0,0.359-0.038,0.49-0.112
			c0.131-0.075,0.238-0.175,0.322-0.301s0.148-0.275,0.195-0.448s0.089-0.356,0.126-0.553l1.316-7.462h1.302l-1.33,7.504
			c-0.056,0.326-0.133,0.642-0.23,0.945c-0.099,0.303-0.238,0.568-0.42,0.798c-0.183,0.229-0.418,0.41-0.707,0.546
			c-0.289,0.135-0.648,0.203-1.078,0.203c-0.121,0-0.254-0.01-0.399-0.028c-0.145-0.019-0.268-0.037-0.371-0.056L155.799,62.3z
			 M160.601,51.072c0,0.233-0.079,0.434-0.236,0.602s-0.352,0.252-0.583,0.252c-0.222,0-0.414-0.069-0.576-0.21
			c-0.161-0.141-0.242-0.336-0.242-0.588s0.085-0.459,0.257-0.623c0.171-0.163,0.367-0.245,0.59-0.245
			c0.222,0,0.409,0.075,0.562,0.224C160.524,50.633,160.601,50.829,160.601,51.072z"/>
		<path style="fill:#58595B;" d="M162.505,60.13h-1.288l1.162-6.636h1.302L162.505,60.13z M164.227,51.072
			c0,0.233-0.079,0.434-0.236,0.602s-0.352,0.252-0.583,0.252c-0.222,0-0.414-0.069-0.576-0.21
			c-0.161-0.141-0.242-0.336-0.242-0.588s0.085-0.459,0.257-0.623c0.171-0.163,0.367-0.245,0.59-0.245
			c0.222,0,0.409,0.075,0.562,0.224C164.15,50.633,164.227,50.829,164.227,51.072z"/>
	</g>
</g>
<g>
	<path style="fill:#F26924;" d="M176.994,24.645c-0.788-0.168-1.713-0.346-2.779-0.533c-1.07-0.186-2.233-0.277-3.493-0.277
		c-0.568,0-2.352,0.305-2.774,0.404l-3.232,20.416h-9.079l4.005-25.291c1.699-0.473,3.69-0.922,5.971-1.346
		c2.282-0.422,3.654-0.635,6.378-0.635c0.486,0,1.07,0.027,1.754,0.078s1.363,0.117,2.042,0.201c0.675,0.084,1.35,0.188,2.022,0.307
		c0.671,0.117,1.238,0.262,1.698,0.432L176.994,24.645z"/>
</g>
</svg>
