<?xml version="1.0" encoding="utf-8"?>
<!-- Generator: Adobe Illustrator 19.2.0, SVG Export Plug-In . SVG Version: 6.00 Build 0)  -->
<svg version="1.1" id="Warstwa_1" xmlns="http://www.w3.org/2000/svg" xmlns:xlink="http://www.w3.org/1999/xlink" x="0px" y="0px"
	 viewBox="0 0 330.8 83.6" style="enable-background:new 0 0 330.8 83.6;" xml:space="preserve">
<style type="text/css">
	.st0{fill:#F15B24;}
</style>
<g>
	<g>
		<path class="st0" d="M93.6,42.2c2.1,0,4,0.5,5.6,1.4c1.6,0.9,2.9,2.2,3.9,3.8l-3.4,2.7c-0.8-1-1.6-1.9-2.6-2.5
			c-1-0.6-2.1-0.9-3.5-0.9c-1,0-2,0.2-2.8,0.6c-0.9,0.4-1.6,0.9-2.2,1.6c-0.6,0.7-1.1,1.4-1.4,2.3C86.8,52,86.7,53,86.7,54
			c0,1,0.2,2,0.5,2.9c0.4,0.9,0.8,1.7,1.4,2.3c0.6,0.7,1.4,1.2,2.2,1.5c0.9,0.4,1.8,0.6,2.8,0.6c1.4,0,2.5-0.3,3.5-0.9
			c0.9-0.6,1.8-1.4,2.6-2.5l3.4,2.6c-1,1.6-2.3,2.9-3.9,3.8c-1.6,0.9-3.5,1.4-5.6,1.4c-1.7,0-3.2-0.3-4.7-0.9
			c-1.5-0.6-2.7-1.4-3.8-2.5c-1.1-1.1-1.9-2.3-2.5-3.7c-0.6-1.4-0.9-3-0.9-4.6s0.3-3.2,0.9-4.6c0.6-1.4,1.5-2.7,2.5-3.7
			c1.1-1.1,2.4-1.9,3.8-2.5C90.4,42.5,92,42.2,93.6,42.2z"/>
		<path class="st0" d="M110.9,31.6c0.8,0,1.4,0.3,2,0.8c0.6,0.5,0.8,1.2,0.8,1.9c0,0.8-0.3,1.4-0.8,1.9c-0.6,0.5-1.2,0.8-2,0.8
			c-0.8,0-1.5-0.3-2-0.8c-0.6-0.5-0.8-1.2-0.8-1.9c0-0.8,0.3-1.4,0.8-1.9C109.4,31.8,110.1,31.6,110.9,31.6z M113.3,65.3h-4.8V42.7
			h4.8V65.3z"/>
		<path class="st0" d="M132.9,46.9h-6.7v10.6c0,1.5,0.4,2.5,1.2,3.1c0.8,0.6,1.9,0.8,3.3,0.8c0.4,0,0.8,0,1.3-0.1
			c0.5,0,1-0.1,1.6-0.2v4.1c-0.6,0.2-1.2,0.3-1.9,0.4c-0.6,0.1-1.3,0.1-2.1,0.1c-2.5,0-4.5-0.6-6-1.9c-1.5-1.3-2.3-3.2-2.3-6v-11
			h-3.7v-4.2h3.7v-5.9h4.8v5.9h6.7V46.9z"/>
		<path class="st0" d="M141,31.6c0.8,0,1.4,0.3,2,0.8c0.6,0.5,0.8,1.2,0.8,1.9c0,0.8-0.3,1.4-0.8,1.9c-0.6,0.5-1.2,0.8-2,0.8
			c-0.8,0-1.5-0.3-2-0.8c-0.6-0.5-0.8-1.2-0.8-1.9c0-0.8,0.3-1.4,0.8-1.9C139.5,31.8,140.2,31.6,141,31.6z M143.4,65.3h-4.8V42.7
			h4.8V65.3z"/>
		<path class="st0" d="M163,46.9h-6.7v10.6c0,1.5,0.4,2.5,1.2,3.1c0.8,0.6,1.9,0.8,3.3,0.8c0.4,0,0.8,0,1.3-0.1c0.5,0,1-0.1,1.6-0.2
			v4.1c-0.6,0.2-1.2,0.3-1.9,0.4c-0.6,0.1-1.3,0.1-2.1,0.1c-2.5,0-4.5-0.6-6-1.9c-1.5-1.3-2.3-3.2-2.3-6v-11h-3.7v-4.2h3.7v-5.9h4.8
			v5.9h6.7V46.9z"/>
		<path class="st0" d="M179.7,42.5c0.4,0,0.7,0,1,0.1c0.3,0,0.6,0.1,0.8,0.2V47H180c-0.9,0-1.7,0.1-2.5,0.4
			c-0.8,0.3-1.5,0.7-2.1,1.2c-0.6,0.5-1.1,1.2-1.4,2c-0.4,0.8-0.5,1.7-0.5,2.7v12h-4.8V42.7h4.5v3c0.8-1.1,1.8-1.9,2.9-2.4
			C177.1,42.8,178.3,42.5,179.7,42.5z"/>
		<path class="st0" d="M194,42.2c1.4,0,2.6,0.2,3.8,0.6c1.1,0.4,2.1,1,2.9,1.8c0.8,0.8,1.4,1.8,1.9,2.9c0.5,1.2,0.7,2.5,0.7,4.1
			v13.6h-4.5v-2.5c-0.8,0.9-1.8,1.7-3,2.2c-1.2,0.5-2.6,0.8-4.2,0.8c-1.2,0-2.3-0.2-3.2-0.5c-1-0.3-1.8-0.7-2.5-1.3
			c-0.7-0.6-1.2-1.3-1.6-2.1c-0.4-0.8-0.6-1.7-0.6-2.7c0-2,0.8-3.6,2.2-4.7c1.5-1.1,3.5-1.7,6.1-1.7h6.4v-1.5c0-1.6-0.4-2.8-1.2-3.6
			c-0.8-0.8-2-1.2-3.6-1.2c-1.3,0-2.5,0.3-3.4,0.9c-1,0.6-1.9,1.4-2.8,2.5l-2.8-2.8c1.2-1.7,2.6-2.9,4.2-3.6
			C190.3,42.6,192.1,42.2,194,42.2z M192.6,62.1c0.8,0,1.5-0.1,2.2-0.4c0.7-0.3,1.3-0.6,1.9-1.1c0.5-0.5,1-1,1.3-1.7
			c0.3-0.7,0.5-1.4,0.5-2.1v-0.4h-5.8c-1.3,0-2.3,0.2-3,0.7c-0.7,0.5-1,1.1-1,2.1c0,1,0.4,1.7,1.1,2.2
			C190.5,61.8,191.5,62.1,192.6,62.1z"/>
		<path class="st0" d="M219,65.8h-1.7l-10.9-23h5.1l6.6,14.9l6.6-14.9h5.1L219,65.8z"/>
		<path class="st0" d="M243.6,42.2c1.5,0,2.9,0.3,4.2,0.8c1.3,0.5,2.4,1.2,3.3,2.2c0.9,0.9,1.6,2,2.2,3.3c0.5,1.3,0.8,2.6,0.8,4.1
			c0,0.6,0,1.2-0.1,1.7c-0.1,0.6-0.2,1-0.3,1.3h-16.8c0.3,1.9,1.2,3.3,2.5,4.4c1.3,1,2.9,1.6,4.9,1.6c1.3,0,2.5-0.2,3.6-0.7
			c1.1-0.5,2.1-1.1,3-2l2.3,3.3c-1.2,1.1-2.5,2-4,2.7s-3.2,1-5,1c-1.7,0-3.4-0.3-4.9-0.9c-1.5-0.6-2.8-1.4-3.9-2.5
			c-1.1-1.1-1.9-2.3-2.5-3.7c-0.6-1.4-0.9-3-0.9-4.6s0.3-3.2,0.9-4.6c0.6-1.4,1.4-2.7,2.5-3.7c1.1-1.1,2.3-1.9,3.7-2.5
			C240.4,42.5,241.9,42.2,243.6,42.2z M243.4,46.3c-1.7,0-3.1,0.5-4.2,1.5c-1.2,1-1.9,2.3-2.3,4h12.3c-0.1-1.8-0.7-3.1-1.8-4.1
			C246.3,46.8,245,46.3,243.4,46.3z"/>
		<path class="st0" d="M264.3,65.3h-4.8V30.8h4.8V65.3z"/>
		<path class="st0" d="M274,58.7c1,0,1.8,0.3,2.5,1c0.7,0.7,1,1.5,1,2.6c0,1-0.3,1.9-1,2.5c-0.7,0.7-1.5,1-2.5,1c-1,0-1.9-0.3-2.5-1
			c-0.7-0.7-1-1.5-1-2.5c0-1,0.3-1.9,1-2.6C272.1,59,273,58.7,274,58.7z"/>
		<path class="st0" d="M296,42.2c1.6,0,3.1,0.3,4.4,0.9c1.4,0.6,2.5,1.4,3.5,2.5c1,1.1,1.7,2.3,2.3,3.7c0.6,1.4,0.8,3,0.8,4.7
			c0,1.7-0.3,3.2-0.8,4.7c-0.6,1.4-1.3,2.7-2.3,3.7c-1,1.1-2.2,1.9-3.5,2.5c-1.3,0.6-2.8,0.9-4.4,0.9c-1.6,0-3-0.3-4.3-0.8
			c-1.3-0.6-2.4-1.3-3.2-2.4v11h-4.8V42.7h4.5V46c0.8-1.2,1.9-2.1,3.3-2.8C292.8,42.6,294.3,42.2,296,42.2z M295.2,46.6
			c-0.8,0-1.6,0.1-2.5,0.4c-0.8,0.3-1.5,0.7-2.2,1.3s-1.2,1.4-1.6,2.3c-0.4,0.9-0.6,2-0.6,3.3c0,1.3,0.2,2.4,0.6,3.3
			c0.4,0.9,0.9,1.7,1.5,2.3c0.6,0.6,1.4,1.1,2.2,1.4c0.8,0.3,1.6,0.4,2.5,0.4c0.9,0,1.8-0.2,2.7-0.5c0.8-0.4,1.6-0.8,2.2-1.5
			c0.6-0.6,1.1-1.4,1.5-2.3c0.4-0.9,0.5-1.9,0.5-3c0-1.1-0.2-2.1-0.5-3c-0.4-0.9-0.8-1.7-1.4-2.3c-0.6-0.6-1.3-1.1-2.2-1.5
			C297.1,46.8,296.2,46.6,295.2,46.6z"/>
		<path class="st0" d="M317.5,65.3h-4.8V30.8h4.8V65.3z"/>
	</g>
	<g>
		<path class="st0" d="M37.8,10.2c-0.3,0.4-0.3,0.6-0.5,0.7c-5.4,2.5-8.6,7-10.9,12.2c-1.6,3.7-0.7,7.6,0.7,11.3
			c4.3,11,18.2,14.1,25.8,5.8c3.8-4.1,4.4-9.9,1.4-14.6c-1-1.7-2-2.4-3.7-2.9c-0.3,0.4,0.1,0.6,0.3,0.9c3.8,4.2,4.4,8.8,1.9,13.1
			c-2.6,4.5-7.8,6.8-13,5.7c-9.8-2-14.8-13.9-9.5-22.9c2.4-4.1,5.8-6.7,10.2-8.3c1.3-0.5,2.6-0.4,4.3,0.7c-3.1,0.8-5.9,1.4-8,3.2
			c9.9-4.3,11.7-2.4,14.9,0.6c-0.9,0.4-1.7-0.1-2.5-0.2c-7.6-1.6-14.5,3.1-15.8,10.7c-0.8,4.8,2.6,12.1,10.3,10.8
			c3.5-0.6,5.7-4.1,4.3-6.9c-0.6-1.1-1.4-2.2-2.9-1.7c-1.3,0.4-2.2,1.2-1.5,2.9c0.4,1.1-1,1.9-2.5,1.7c-1.9-0.3-3.5-2.1-3.7-4.4
			c-0.7-6.1,5-10.7,11.4-9.3c7.9,1.8,12.1,10.2,8.9,18.2c-3.6,9.2-14.1,13.2-23.5,9c-9.2-4.2-14-14.5-11.3-24.4
			c0.6-2.1,1.4-4,2.4-5.9C28.2,11.2,32,9.4,37.8,10.2z"/>
		<path class="st0" d="M48.6,54.3c-7.1,3.3-14.4,4.3-21.8,0.6c-8.7-4.3-13.3-11.6-13.4-21.2C13.2,25.5,17,18.9,24,14.2
			c-5.7,12.2-5.4,23.6,6.1,32c9.3,6.9,19,5.5,27.8-2.2c-2.3,6.2-7.3,10.5-19.6,9.8c1.1,0.1,2.2,0.4,3.3,0.4c1.1,0.1,2.3,0,3.4-0.1
			c1.2-0.1,2.4-0.3,3.6-0.5C48.5,53.9,48.6,54.1,48.6,54.3z"/>
	</g>
</g>
</svg>
