<svg height="682pt" viewBox="-21 -21 682 682.66669" width="682pt" xmlns="http://www.w3.org/2000/svg"><path d="m139.082031 90.4375c3.875 1.796875 8.4375 1.238281 11.738281-1.5 42.078126-34.957031 105.613282-55.832031 169.933594-55.832031 61.824219 0 120.75 19.4375 170.40625 56.222656 1.972656 1.453125 4.28125 2.160156 6.550782 2.160156 3.378906 0 6.710937-1.546875 8.882812-4.472656 3.632812-4.898437 2.597656-11.804687-2.296875-15.433594-53.480469-39.613281-116.953125-60.546875-183.542969-60.546875-60.722656 0-121.050781 17.476563-165.949218 47.472656v-47.472656c0-6.09375-4.945313-11.035156-11.035157-11.035156-6.085937 0-11.035156 4.941406-11.035156 11.035156v69.417969c0 4.277344 2.472656 8.175781 6.347656 9.984375zm0 0"/><path d="m629.289062 132.414062h-69.417968c-4.285156 0-8.175782 2.472657-9.988282 6.34375-1.808593 3.875-1.234374 8.453126 1.5 11.742188 34.957032 42.074219 55.835938 105.597656 55.835938 169.929688 0 61.835937-19.445312 120.761718-56.222656 170.40625-3.625 4.902343-2.589844 11.804687 2.296875 15.4375 1.976562 1.457031 4.28125 2.164062 6.558593 2.164062 3.371094 0 6.707032-1.546875 8.878907-4.472656 39.617187-53.480469 60.546875-116.953125 60.546875-183.542969 0-60.726563-17.480469-121.0625-47.46875-165.949219h47.46875c6.089844 0 11.03125-4.945312 11.03125-11.035156s-4.929688-11.023438-11.019532-11.023438zm0 0"/><path d="m501.5625 549.5625c-3.871094-1.824219-8.449219-1.238281-11.742188 1.5-42.070312 34.957031-105.59375 55.832031-169.917968 55.832031-61.824219 0-120.75-19.4375-170.414063-56.222656-4.910156-3.625-11.804687-2.578125-15.4375 2.296875-3.628906 4.902344-2.59375 11.8125 2.292969 15.4375 53.496094 39.617188 116.96875 60.546875 183.550781 60.546875 60.707031 0 121.042969-17.476563 165.945313-47.46875v47.480469c0 6.09375 4.941406 11.035156 11.035156 11.035156 6.089844 0 11.03125-4.941406 11.03125-11.035156v-69.417969c0-4.277344-2.46875-8.175781-6.34375-9.984375zm0 0"/><path d="m33.425781 319.570312c0-61.828124 19.441407-120.75 56.21875-170.40625 3.632813-4.902343 2.59375-11.804687-2.292969-15.4375-4.910156-3.628906-11.808593-2.59375-15.4375 2.292969-39.613281 53.496094-60.546874 116.957031-60.546874 183.550781 0 60.722657 17.476562 121.050782 47.472656 165.945313h-47.472656c-6.09375 0-11.035157 4.945313-11.035157 11.039063 0 6.085937 4.941407 11.03125 11.035157 11.03125h69.421874c4.277344 0 8.171876-2.472657 9.984376-6.34375 1.804687-3.875 1.234374-8.453126-1.503907-11.742188-34.976562-42.082031-55.84375-105.609375-55.84375-169.929688zm0 0"/><path d="m428.351562 127.769531c-2.355468-1.324219-4.757812-2.582031-7.164062-3.820312-2.039062-1.050781-4.125-1.996094-6.199219-2.988281-31.558593 24.78125-29.132812 37.207031-26.855469 42.28125 3.695313 3.652343 17.578126 15.195312 35.550782 4.019531 3.628906-2.261719 7.105468-5.695313 10.933594-10.800781 2.890624-3.84375 7.601562-9.195313 14.808593-15.054688-1.304687-.945312-2.539062-1.972656-3.863281-2.890625-1.839844-1.28125-3.738281-2.480469-5.625-3.695313-3.785156-2.460937-7.636719-4.824218-11.585938-7.050781zm0 0"/><path d="m135.605469 261.089844.605469-.070313h.605468c17.824219 0 32.609375 5.773438 43.941406 17.167969 20.8125 20.90625 23.789063 54.878906 23.710938 73.273438-.042969 10.449218.894531 19.714843 2.847656 28.3125 11.875 51.984374 44.988282 49.566406 48.710938 49.136718l1.429687-.085937c11.136719 0 21.144531-6.125 26.117188-16.003907 6.777343-13.414062 17.21875-24.96875 30.191406-33.402343 20.824219-13.523438 29.894531-31.589844 26.96875-53.691407-.175781-1.335937-1.175781-2.019531-1.597656-2.25-.542969-.296874-1.390625-.578124-2.292969-.15625-29.507812 13.460938-64.753906 1.898438-80.234375-26.328124-9.707031-17.6875-25.367187-22.070313-26.03125-22.246094-61.054687-18.945313-72.925781-30.980469-72.460937-44.324219.542968-15.445313 20.730468-20.21875 27.363281-21.769531 10.21875-2.417969 21.109375-3.355469 32.40625-2.757813 40.894531 2.191407 53.136719-32.886719 53.242187-33.238281 3.667969-10.914062-6.089844-38.246094-18.601562-62.34375-1.324219-2.558594-38.503906 16.695312-41.972656 18.703125-13.398438 7.722656-25.976563 16.847656-37.496094 27.164063-23.8125 21.355468-42.90625 47.824218-55.597656 77.179687-2.8125 6.519531-5.394532 13.183594-7.488282 19.980469-.167968.507812-.351562 1.003906-.507812 1.511718-.140625.484376-.230469.992188-.375 1.480469 14.003906 5.902344 26.351562 4.777344 26.515625 4.757813zm0 0"/><path d="m245.816406 527.46875c4.140625-37.449219 35.972656-66.679688 74.507813-66.679688 26.589843 0 48.855469 18.800782 52.953125 44.6875 1.542968 9.722657 4.136718 18.464844 7.25 26.652344 34.96875-9.945312 66.382812-28.261718 91.984375-52.714844-17.347657-20.046874-22.65625-47.367187-15.25-79.878906 2.910156-12.742187-3.386719-25.84375-15.308594-31.855468-37.484375-18.914063-43.496094-52.898438-43.738281-54.34375-5.230469-47.328126 11.507812-65.644532 26.460937-72.773438 10.902344-5.1875 24.03125-4.625 36.027344 1.578125 7.105469 3.675781 27.417969 11.015625 68.535156 7.316406-12.355469-36.492187-34.007812-68.644531-62.136719-93.792969-7.414062 5.429688-12.238281 10.589844-14.828124 14.046876-5.519532 7.359374-10.890626 12.523437-16.914063 16.273437-9.460937 5.894531-18.585937 8.164063-26.914063 8.164063-17.324218 0-31.269531-9.792969-37.785156-17.277344l-1.480468-2.164063c-13.566407-26.183593 7.488281-49.949219 22.648437-63.257812-22.457031-7.722657-46.457031-12.128907-71.503906-12.128907-15.816407 0-31.230469 1.742188-46.105469 4.921876 10.847656 21.503906 24.675781 55.050781 17.832031 75.445312-5.945312 17.71875-29.128906 50.703125-75.296875 48.25-9.183594-.460938-18.023437.273438-26.207031 2.210938-3 .707031-5.277344 1.398437-6.960937 2.03125 5.765624 3.878906 19.714843 11.03125 53.015624 21.371093.421876.085938 24.839844 6.410157 39.351563 32.835938 9.960937 18.164062 32.6875 25.570312 51.730469 16.875 7.128906-3.246094 15.195312-2.914063 22.148437.914062 6.972657 3.851563 11.746094 10.824219 12.796875 18.660157 2.328125 17.597656.664063 50.757812-36.8125 75.113281-9.710937 6.308593-17.488281 14.894531-22.519531 24.839843-8.6875 17.21875-26.0625 27.96875-45.410156 28.113282-.746094.054687-1.851563.109375-3.25.109375-13.59375 0-54.855469-5.195313-68.816407-66.316407-2.335937-10.273437-3.441406-21.164062-3.398437-33.324218.046875-12.050782-1.53125-41.785156-17.277344-57.601563-7.0625-7.085937-16.179687-10.570312-27.851562-10.667969-3.398438.253907-17.355469.75-33.488281-5.21875-2.652344 13.648438-4.140626 27.71875-4.140626 42.125-.035156 95.503907 61.078126 176.796876 146.152344 207.460938zm0 0"/><path d="m320.324219 482.855469c-28.578125 0-51.929688 22.800781-52.832031 51.183593-.09375 2.890626 37.59375 5.964844 41.265624 6.15625 16.605469.859376 33.367188-.148437 49.753907-3.039062-3.074219-8.757812-5.449219-18.191406-7.027344-28.226562-2.351563-14.871094-15.746094-26.074219-31.160156-26.074219zm0 0"/><path d="m539.664062 297.414062c-1.113281-11.546874-2.867187-26.441406-4.292968-26.296874-47.910156 5.03125-73.519532-3.53125-84.796875-9.378907-3.375-1.753906-6.816407-2.636719-10.011719-2.636719-2.28125 0-4.441406.449219-6.363281 1.367188-15.394531 7.347656-16.164063 31.171875-14.113281 49.851562.085937.324219 4.667968 23.945313 31.808593 37.652344 21.003907 10.582032 32.058594 33.808594 26.894531 56.460938-5.59375 24.542968-2.539062 44.273437 9.023438 58.871094 9.84375-11.488282 18.59375-23.910157 25.945312-37.242188 12.890626-23.414062 21.273438-49.257812 24.980469-75.714844 1.84375-13.234375 2.527344-26.640625 2.011719-39.992187-.058594-1.222657-.476562-6.566407-1.085938-12.941407zm0 0"/></svg>